<svg width="841" height="804" viewBox="0 0 841 804" fill="none" xmlns="http://www.w3.org/2000/svg">
<path d="M360.5 76C278.607 101.636 249.027 130.793 212.5 197.5C193.898 232.354 185.528 254.908 176 303C183.294 379.001 195.231 411.094 228 453C263.753 492.432 287.151 510.506 339.5 530C409.109 549.006 447.162 548.037 512.5 516.5C568.804 476.765 584.4 436.404 595.5 345.5C571.378 362.714 557.158 370.036 528 370.5C439.111 347.741 409.165 317.103 368.5 251C318.801 318.081 284.22 368.729 228 366.5C209.831 357.731 207.797 347.676 212.5 324.5C275.737 291.368 305.679 259.444 339.5 155C353.602 134.768 363.946 130.475 387.5 137.5C387.5 137.5 402.5 192 435.5 236C468.5 280 480.888 300.465 537.5 311C556.603 298.59 565.708 288.513 576 259C590.253 250.95 598.249 251.322 612.5 259C644.319 306.186 652.39 332.684 653 380C643.134 443.119 632.876 474.824 595.5 516.5C540.112 584.542 497.968 598.42 414.5 605C327.059 597.214 282.664 578.461 212.5 516.5C146.244 452.258 122.295 408.074 122 303C134.61 194.727 159.612 146.248 228 76C293.701 31.1108 336.421 10.9153 443.5 1C542.125 6.44807 589.304 19.2261 653 66.5C714.957 115.609 742.683 149.541 772.5 228C770.734 238.97 802.955 301.965 784 399.5C765.045 497.035 726.403 528.184 720.5 574.5C714.597 620.816 771.265 688.864 801 715C840.116 739.756 846.124 752.196 836 772.5C789.887 806.257 746.504 809.828 645.5 795.5C577.508 768.448 547.636 740.96 501 682C500.187 655.838 508.192 648.055 543.5 647.5C592.774 721.159 710.207 752.576 737.5 740C687.43 684.446 669.225 642.072 657 543.5C693.765 497.784 707.549 466.136 720.5 399.5C731.67 332.04 731.68 290.373 703 228C680.986 155.219 643.053 129.22 576 91.5C494.734 62.48 447.551 59.0635 360.5 76Z" fill="url(#paint0_linear_213_6)" stroke="black"/>
<path d="M393.5 424.5L349 413C351.388 466.055 363.659 491.956 405 493.5C429.922 481.109 459 413 437.5 413C416 413 393.5 424.5 393.5 424.5Z" fill="url(#paint1_linear_213_6)"/>
<path d="M101 226C112.242 222.923 138.862 198.379 120 182C101.161 158.41 84.3731 159.212 45.0001 182C8.52843 222.087 -0.974666 251.6 1.00013 316.5C20.4228 384.87 43.5469 419.284 89.5001 413C117.534 398.634 119.45 386.639 101 359C76.666 365.182 69.0853 346.598 60.5001 295.5C57.4602 250.139 69.8385 238.316 101 226Z" fill="url(#paint2_linear_213_6)"/>
<path d="M393.5 424.5L349 413C351.388 466.055 363.659 491.956 405 493.5C429.922 481.109 459 413 437.5 413C416 413 393.5 424.5 393.5 424.5Z" stroke="black"/>
<path d="M101 226C112.242 222.923 138.862 198.379 120 182C101.161 158.41 84.3731 159.212 45.0001 182C8.52843 222.087 -0.974666 251.6 1.00013 316.5C20.4228 384.87 43.5469 419.284 89.5001 413C117.534 398.634 119.45 386.639 101 359C76.666 365.182 69.0853 346.598 60.5001 295.5C57.4602 250.139 69.8385 238.316 101 226Z" stroke="black"/>
<defs>
<linearGradient id="paint0_linear_213_6" x1="481.17" y1="1" x2="481.17" y2="803.443" gradientUnits="userSpaceOnUse">
<stop stop-color="#D341EB"/>
<stop offset="0.164583" stop-color="#EF3758" stop-opacity="0.82"/>
<stop offset="0.560417" stop-color="#3829E2" stop-opacity="0.84"/>
<stop offset="0.898958" stop-color="#B320CB" stop-opacity="0.7"/>
</linearGradient>
<linearGradient id="paint1_linear_213_6" x1="222.877" y1="164.607" x2="222.877" y2="493.5" gradientUnits="userSpaceOnUse">
<stop stop-color="#D341EB"/>
<stop offset="0.164583" stop-color="#EF3758" stop-opacity="0.82"/>
<stop offset="0.560417" stop-color="#3829E2" stop-opacity="0.84"/>
<stop offset="0.898958" stop-color="#B320CB" stop-opacity="0.7"/>
</linearGradient>
<linearGradient id="paint2_linear_213_6" x1="222.877" y1="164.607" x2="222.877" y2="493.5" gradientUnits="userSpaceOnUse">
<stop stop-color="#D341EB"/>
<stop offset="0.164583" stop-color="#EF3758" stop-opacity="0.82"/>
<stop offset="0.560417" stop-color="#3829E2" stop-opacity="0.84"/>
<stop offset="0.898958" stop-color="#B320CB" stop-opacity="0.7"/>
</linearGradient>
</defs>
</svg>
